<?xml version="1.0" encoding="iso-8859-1"?><!-- Generator: Adobe Illustrator 22.1.0, SVG Export Plug-In . SVG Version: 6.00 Build 0)  --><svg xmlns="http://www.w3.org/2000/svg" xmlns:xlink="http://www.w3.org/1999/xlink" viewBox="0 0 100 100" width="100px" height="100px"><path style="fill:none;stroke:#000000;stroke-width:2;stroke-linejoin:round;stroke-miterlimit:10;" d="M25,30l3.645,47.383C28.845,79.988,31.017,82,33.63,82h32.74c2.613,0,4.785-2.012,4.985-4.617L75,30"/><path style="fill:none;stroke:#000000;stroke-width:2;stroke-linecap:round;stroke-linejoin:round;stroke-miterlimit:10;" d="M44,19v-3c0-1.105,0.895-2,2-2h8c1.105,0,2,0.895,2,2v3"/><path style="fill:none;stroke:#000000;stroke-width:2;stroke-linecap:round;stroke-linejoin:round;stroke-miterlimit:10;" d="M77,24h-4l-1.835-3.058C70.442,19.737,69.14,19,67.735,19h-35.47c-1.405,0-2.707,0.737-3.43,1.942L27,24h-4c-1.657,0-3,1.343-3,3s1.343,3,3,3h54c1.657,0,3-1.343,3-3S78.657,24,77,24z"/><line style="fill:none;stroke:#000000;stroke-linecap:round;stroke-linejoin:round;stroke-miterlimit:10;" x1="61.5" y1="24.5" x2="25.5" y2="24.5"/><line style="fill:none;stroke:#000000;stroke-linecap:round;stroke-linejoin:round;stroke-miterlimit:10;" x1="73.5" y1="24.5" x2="68.5" y2="24.5"/><line style="fill:none;stroke:#000000;stroke-linecap:round;stroke-linejoin:round;stroke-miterlimit:10;" x1="66.5" y1="24.5" x2="64.5" y2="24.5"/><path style="fill:none;stroke:#000000;stroke-linecap:round;stroke-linejoin:round;stroke-miterlimit:10;" d="M52.5,63.5V38c0-1.381-1.119-2.5-2.5-2.5s-2.5,1.119-2.5,2.5v35c0,1.381,1.119,2.5,2.5,2.5s2.5-1.119,2.5-2.5v-3.5"/><path style="fill:none;stroke:#000000;stroke-linecap:round;stroke-linejoin:round;stroke-miterlimit:10;" d="M59.5,47.5V73c0,1.381,1.119,2.5,2.5,2.5s2.5-1.119,2.5-2.5V38c0-1.381-1.119-2.5-2.5-2.5s-2.5,1.119-2.5,2.5v1.5"/><line style="fill:none;stroke:#000000;stroke-linecap:round;stroke-linejoin:round;stroke-miterlimit:10;" x1="59.5" y1="42.5" x2="59.5" y2="44.5"/><path style="fill:none;stroke:#000000;stroke-linecap:round;stroke-linejoin:round;stroke-miterlimit:10;" d="M38,35.5c-1.381,0-2.5,1.119-2.5,2.5v35c0,1.381,1.119,2.5,2.5,2.5s2.5-1.119,2.5-2.5V38C40.5,36.619,39.381,35.5,38,35.5z"/></svg>