<?xml version="1.0" encoding="iso-8859-1"?><!-- Generator: Adobe Illustrator 21.0.2, SVG Export Plug-In . SVG Version: 6.00 Build 0)  --><svg xmlns="http://www.w3.org/2000/svg" xmlns:xlink="http://www.w3.org/1999/xlink" viewBox="0 0 80 80" width="80px" height="80px"><path style="fill:none;stroke:#000000;stroke-width:2;stroke-miterlimit:10;" d="M24,64l-13,5l5-13l43.536-43.536c1.953-1.953,5.118-1.953,7.071,0l0.929,0.929c1.953,1.953,1.953,5.118,0,7.071L24,64z"/><polygon points="16.6,66.6 11,69 13.4,63.4 "/><rect x="55.964" y="14.843" transform="matrix(0.7071 -0.7071 0.7071 0.7071 2.9315 48.0772)" style="fill:none;stroke:#000000;stroke-width:2;stroke-miterlimit:10;" width="7.071" height="11.314"/><circle cx="41" cy="36" r="1"/><circle cx="44" cy="33" r="1"/><circle cx="47" cy="30" r="1"/><circle cx="50" cy="27" r="1"/><circle cx="53" cy="24" r="1"/><circle cx="23" cy="54" r="1"/><circle cx="26" cy="51" r="1"/><circle cx="29" cy="48" r="1"/><circle cx="32" cy="45" r="1"/><circle cx="35" cy="42" r="1"/><circle cx="38" cy="39" r="1"/><path style="fill:none;stroke:#000000;stroke-width:2;stroke-miterlimit:10;" d="M16,56c0,0,2,0,3,1s1,3,1,3s2,0,3,1s1,3,1,3"/></svg>